<svg xmlns="http://www.w3.org/2000/svg" width="512" height="512" viewBox="0 0 512 512">
  <defs>
    <linearGradient id="bg" x1="0" y1="0" x2="0" y2="1">
      <stop offset="0" stop-color="#46be4c"/>
      <stop offset="1" stop-color="#2f8f36"/>
    </linearGradient>
  </defs>
  <rect width="512" height="512" rx="112.64" fill="url(#bg)"/>
  <g transform="translate(61.44 61.44) scale(3.2426666666666666)">
    <circle cx="94.00" cy="62.00" r="14" fill="#f0a92c"/><circle cx="89.44" cy="79.00" r="14" fill="#f0a92c"/><circle cx="77.00" cy="91.44" r="14" fill="#f0a92c"/><circle cx="60.00" cy="96.00" r="14" fill="#f0a92c"/><circle cx="43.00" cy="91.44" r="14" fill="#f0a92c"/><circle cx="30.56" cy="79.00" r="14" fill="#f0a92c"/><circle cx="26.00" cy="62.00" r="14" fill="#f0a92c"/><circle cx="30.56" cy="45.00" r="14" fill="#f0a92c"/><circle cx="43.00" cy="32.56" r="14" fill="#f0a92c"/><circle cx="60.00" cy="28.00" r="14" fill="#f0a92c"/><circle cx="77.00" cy="32.56" r="14" fill="#f0a92c"/><circle cx="89.44" cy="45.00" r="14" fill="#f0a92c"/>
    <circle cx="87.05" cy="69.25" r="15" fill="#f0a92c"/><circle cx="79.80" cy="81.80" r="15" fill="#f0a92c"/><circle cx="67.25" cy="89.05" r="15" fill="#f0a92c"/><circle cx="52.75" cy="89.05" r="15" fill="#f0a92c"/><circle cx="40.20" cy="81.80" r="15" fill="#f0a92c"/><circle cx="32.95" cy="69.25" r="15" fill="#f0a92c"/><circle cx="32.95" cy="54.75" r="15" fill="#f0a92c"/><circle cx="40.20" cy="42.20" r="15" fill="#f0a92c"/><circle cx="52.75" cy="34.95" r="15" fill="#f0a92c"/><circle cx="67.25" cy="34.95" r="15" fill="#f0a92c"/><circle cx="79.80" cy="42.20" r="15" fill="#f0a92c"/><circle cx="87.05" cy="54.75" r="15" fill="#f0a92c"/>
    <circle cx="36" cy="36" r="10" fill="#f0a92c"/>
    <circle cx="84" cy="36" r="10" fill="#f0a92c"/>
    <circle cx="36" cy="36" r="5" fill="#e07b52"/>
    <circle cx="84" cy="36" r="5" fill="#e07b52"/>
    <circle cx="60" cy="62" r="31" fill="#ffd98a"/>
    <ellipse cx="60" cy="74" rx="19" ry="14" fill="#fff0cd"/>
    <path d="M42 60 q7 -8 14 0" stroke="#3b2a17" stroke-width="3.6" fill="none" stroke-linecap="round"/>
    <path d="M64 60 q7 -8 14 0" stroke="#3b2a17" stroke-width="3.6" fill="none" stroke-linecap="round"/>
    <path d="M55 68 q5 -4 10 0 q-3 5 -5 5 q-2 0 -5 -5 z" fill="#c9603f"/>
    <path d="M48 76 q12 14 24 0 q-12 5 -24 0z" fill="#8a4a2e" stroke="#8a4a2e" stroke-width="3.2" stroke-linejoin="round"/>
    <g stroke="#d8b06f" stroke-width="2" stroke-linecap="round">
      <path d="M38 72 h-9"/><path d="M39 78 h-8"/>
      <path d="M82 72 h9"/><path d="M81 78 h8"/>
    </g></g>
</svg>